:SAMPLES-PER-SECOND 30
:FRAME-RANGE 1-2091
:FULLY-SPECIFIED
:DEGREES
1699
root  -47.1769 39.578 -71.5292 175.758 77.2768 174.548
RightUpLeg  -17.4134 -4.30212 -5.26649
RightLeg  15.0201 -2.85756 -1.09775
RightFoot  1.34937 -1.0114 9.15963
RightToes  5.82063e-011 0 -3.6325e-017
Spine  9.58449 -0.166614 -1.30113
Spine1  -0.876084 -0.699338 2.78207
HEad  6.22802 55.9305 -1.85837
LeftShoulder1  1.00439 0.0785367 -23.0174
LeftArm  53.6228 5.59392 -10.9702
LeftForeArm  9.98677 -16.7367 -11.2141
LeftHand  -0.710024 -1.6958 11.8018
RightShoulder  5.87835 7.08955 48.6258
RightArm  19.6558 -3.16765 11.9038
RightForeArm  11.0032 10.8452 13.603
RightHand  0.353663 2.98944 4.67382
LeftUpLeg  -8.28203 9.927 4.92086
LeftLeg  11.9748 -9.29829 -4.28692
LeftFoot  -4.42627 0.481582 -7.52517
LeftToes  -6.27584e-011 -2.25241e-010 2.80627e-011
1700
root  -47.6372 39.7006 -71.879 175.208 79.8983 173.893
RightUpLeg  -18.1079 -7.72567 -4.32542
RightLeg  21.3632 -4.95926 -2.34702
RightFoot  -0.324993 -0.769694 7.94585
RightToes  5.82063e-011 0 -3.6325e-017
Spine  9.06604 0.0897067 -1.06005
Spine1  -0.733035 -0.390633 2.51111
HEad  7.09768 56.5367 -1.67484
LeftShoulder1  0.881066 0.441916 -22.4347
LeftArm  52.8572 6.23259 -9.53998
LeftForeArm  8.8768 -17.3089 -10.6475
LeftHand  -0.757491 -1.63925 12.672
RightShoulder  5.77503 6.91987 48.5495
RightArm  19.2481 -3.7431 11.6653
RightForeArm  14.3711 8.58808 14.7549
RightHand  0.433236 3.17947 5.63115
LeftUpLeg  -7.56857 9.18051 4.78016
LeftLeg  9.88363 -5.89824 -4.13417
LeftFoot  -3.32498 0.52727 -7.23489
LeftToes  -6.27584e-011 -2.25241e-010 2.80627e-011
1701
root  -48.0756 39.7539 -72.1701 172.877 82.3491 171.434
RightUpLeg  -18.7989 -9.48223 -4.08783
RightLeg  29.063 -6.47016 -4.10576
RightFoot  -2.289 -0.577763 7.09163
RightToes  5.82063e-011 0 -3.6325e-017
Spine  8.76708 0.229692 -0.986221
Spine1  -0.962328 -0.195937 2.08865
HEad  7.61069 56.9444 -1.21821
LeftShoulder1  0.78182 0.718075 -21.6788
LeftArm  52.7681 6.76612 -8.49474
LeftForeArm  7.11792 -18.6237 -9.25657
LeftHand  -0.73434 -1.79093 12.0437
RightShoulder  5.57319 6.57108 48.4764
RightArm  18.6438 -4.36976 11.5827
RightForeArm  16.8907 6.7003 15.5226
RightHand  0.486495 3.07166 6.44015
LeftUpLeg  -7.15359 9.38108 4.58899
LeftLeg  8.38897 -3.52953 -4.46692
LeftFoot  -2.40461 0.543491 -6.76616
LeftToes  -6.27584e-011 -2.25241e-010 2.80627e-011
1702
root  -48.4961 39.7439 -72.4136 166.071 84.4074 164.689
RightUpLeg  -18.7983 -11.0305 -4.5271
RightLeg  36.5045 -7.70983 -6.33671
RightFoot  -3.9624 -0.45515 6.63144
RightToes  5.82063e-011 0 -3.6325e-017
Spine  8.66937 0.24372 -1.33036
Spine1  -1.15188 -0.231182 1.91683
HEad  7.49946 57.2004 -1.27279
LeftShoulder1  0.736577 0.856822 -21.4242
LeftArm  52.7188 6.93691 -7.29568
LeftForeArm  4.98992 -20.3814 -7.31008
LeftHand  -0.639728 -1.71733 10.6241
RightShoulder  5.26186 6.0598 48.2168
RightArm  17.4479 -5.09362 11.6899
RightForeArm  18.6878 5.28685 15.9278
RightHand  0.508284 3.04197 6.76419
LeftUpLeg  -6.92218 9.77763 4.14307
LeftLeg  7.59342 -1.67829 -4.82381
LeftFoot  -1.86549 0.541878 -6.39983
LeftToes  -6.27584e-011 -2.25241e-010 2.80627e-011
1703
root  -48.9036 39.696 -72.6235 151.87 86.074 150.648
RightUpLeg  -17.9968 -12.7118 -5.4207
RightLeg  42.6801 -8.86087 -8.93059
RightFoot  -5.43003 -0.348981 6.03636
RightToes  5.82063e-011 0 -3.6325e-017
Spine  8.47672 0.200229 -1.61498
Spine1  -1.04215 -0.335698 1.70041
HEad  7.10079 57.0698 -1.64743
LeftShoulder1  0.699159 0.975154 -21.2339
LeftArm  50.6569 6.27436 -6.7709
LeftForeArm  4.96777 -21.82 -5.76091
LeftHand  -0.662879 -2.22773 10.3
RightShoulder  4.92721 5.4722 48.1096
RightArm  17.8634 -5.82234 11.5435
RightForeArm  17.6939 5.16283 16.0698
RightHand  0.524046 3.04889 6.97415
LeftUpLeg  -7.00573 9.76262 3.47257
LeftLeg  7.45847 0.298019 -4.82134
LeftFoot  -1.59369 0.537579 -6.18965
LeftToes  -6.27584e-011 -2.25241e-010 2.80627e-011
1704
root  -49.3078 39.6397 -72.7902 121.05 87.244 119.966
RightUpLeg  -16.4903 -14.0615 -6.58799
RightLeg  46.9994 -9.84642 -11.4193
RightFoot  -6.77498 -0.267779 5.55481
RightToes  5.82063e-011 0 -3.6325e-017
Spine  8.21487 0.215453 -1.69728
Spine1  -0.973272 -0.344754 1.37243
HEad  6.91579 56.9394 -1.82088
LeftShoulder1  0.669153 1.07821 -21.1663
LeftArm  47.7549 4.52255 -6.68318
LeftForeArm  4.39195 -22.7566 -5.07441
LeftHand  -0.605303 -2.43156 9.1937
RightShoulder  4.62836 4.93145 48.0935
RightArm  17.5638 -6.36947 11.3574
RightForeArm  17.5916 4.7895 16.1948
RightHand  0.497799 3.12559 6.54867
LeftUpLeg  -7.30907 9.60053 2.77623
LeftLeg  7.60313 2.58157 -4.59114
LeftFoot  -1.35192 0.521859 -5.87637
LeftToes  -6.27584e-011 -2.25241e-010 2.80627e-011
1705
root  -49.7171 39.6059 -72.9191 74.0809 87.0789 73.1359
RightUpLeg  -14.4056 -14.8368 -7.87006
RightLeg  49.1802 -10.6259 -13.2084
RightFoot  -7.9816 -0.19747 4.87926
RightToes  5.82063e-011 0 -3.6325e-017
Spine  7.89007 0.27229 -1.6042
Spine1  -0.779342 -0.290827 1.08783
HEad  7.06521 56.916 -1.79998
LeftShoulder1  0.677843 1.0683 -21.4265
LeftArm  43.9798 1.84777 -6.66787
LeftForeArm  4.249 -23.0762 -4.93041
LeftHand  -0.536857 -2.47283 8.1395
RightShoulder  4.5517 4.79745 48.0615
RightArm  16.9171 -6.67011 11.1985
RightForeArm  17.8335 4.36049 16.2918
RightHand  0.485976 3.06773 6.43636
LeftUpLeg  -7.53723 9.48472 2.24923
LeftLeg  7.56779 4.93963 -4.35991
LeftFoot  -0.885003 0.503956 -5.44823
LeftToes  -6.27584e-011 -2.25241e-010 2.80627e-011
1706
root  -50.1376 39.5836 -73.0048 44.6555 85.4026 43.8752
RightUpLeg  -11.9142 -15.5098 -9.27163
RightLeg  49.2488 -11.3263 -14.0462
RightFoot  -9.09489 -0.146972 4.34211
RightToes  5.82063e-011 0 -3.6325e-017
Spine  7.59042 0.302482 -1.35977
Spine1  -0.537672 -0.189859 0.565419
HEad  7.22233 57.2876 -1.58981
LeftShoulder1  0.708479 0.978265 -21.6622
LeftArm  39.625 -1.63772 -6.74078
LeftForeArm  4.00947 -22.5146 -5.20773
LeftHand  -0.490145 -2.40946 7.50638
RightShoulder  4.63931 4.96518 48.0142
RightArm  16.7568 -6.50371 11.2646
RightForeArm  18.1259 3.93363 16.4199
RightHand  0.508528 3.04249 6.76708
LeftUpLeg  -7.61309 9.39619 1.86941
LeftLeg  7.26531 7.41821 -4.113
LeftFoot  -0.246787 0.506163 -5.1956
LeftToes  -6.27584e-011 -2.25241e-010 2.80627e-011
1707
root  -50.581 39.5904 -73.0477 31.4812 83.196 30.714
RightUpLeg  -9.3352 -16.6633 -10.6162
RightLeg  47.4861 -12.3868 -14.3714
RightFoot  -10.1275 -0.107356 3.64323
RightToes  5.82063e-011 0 -3.6325e-017
Spine  7.4569 0.250569 -1.13692
Spine1  -0.666874 -0.163677 0.258467
HEad  7.28783 57.7785 -1.25795
LeftShoulder1  0.753379 0.842284 -21.9331
LeftArm  34.0954 -5.68894 -6.5523
LeftForeArm  4.14809 -21.1947 -6.2357
LeftHand  -0.441359 -2.23361 6.92378
RightShoulder  4.89233 5.43554 47.9638
RightArm  16.6853 -6.17393 11.3219
RightForeArm  18.4625 3.86197 16.4195
RightHand  0.535698 3.05468 7.12848
LeftUpLeg  -7.65193 9.42036 1.71429
LeftLeg  6.47499 10.0005 -4.02769
LeftFoot  0.671917 0.520274 -4.98264
LeftToes  -6.27584e-011 -2.25241e-010 2.80627e-011
1708
root  -51.0325 39.633 -73.0427 24.0667 80.8416 23.1732
RightUpLeg  -6.62289 -18.834 -11.893
RightLeg  44.0257 -14.0244 -14.3529
RightFoot  -11.2015 -0.0795521 2.93166
RightToes  5.82063e-011 0 -3.6325e-017
Spine  7.04627 0.1296 -0.891506
Spine1  -0.566116 -0.205325 0.219208
HEad  6.81745 58.3558 -1.31769
LeftShoulder1  0.810909 0.637859 -21.9232
LeftArm  26.1798 -10.1098 -6.15192
LeftForeArm  7.15976 -18.8099 -8.43009
LeftHand  -0.478431 -2.05768 7.65238
RightShoulder  5.18115 5.98536 47.8465
RightArm  17.2209 -5.67016 11.5876
RightForeArm  17.7799 4.74484 16.1744
RightHand  0.561492 3.122 7.41707
LeftUpLeg  -7.56393 9.49305 1.8553
LeftLeg  5.15973 12.4321 -4.13374
LeftFoot  1.87335 0.542077 -4.77723
LeftToes  -6.27584e-011 -2.25241e-010 2.80627e-011
1709
root  -51.5147 39.6819 -72.9708 18.7299 78.199 17.524
RightUpLeg  -4.13283 -21.5363 -12.8508
RightLeg  39.2396 -15.877 -13.7138
RightFoot  -11.9166 -0.0698895 2.16684
RightToes  5.82063e-011 0 -3.6325e-017
Spine  6.7617 0.0445128 -0.708267
Spine1  -0.666781 -0.227864 0.370819
HEad  5.90801 59.0926 -1.69453
LeftShoulder1  0.875233 0.360554 -21.4489
LeftArm  14.4512 -13.9462 -5.33628
LeftForeArm  12.6865 -15.3747 -11.153
LeftHand  -0.48638 -1.2471 8.66051
RightShoulder  5.4958 6.56817 47.811
RightArm  18.4668 -4.97088 11.8915
RightForeArm  15.7758 6.40042 15.6953
RightHand  0.556898 2.95746 7.51303
LeftUpLeg  -7.65225 9.76693 2.3424
LeftLeg  3.85647 14.9997 -4.3379
LeftFoot  3.13389 0.570911 -4.64463
LeftToes  -6.27584e-011 -2.25241e-010 2.80627e-011
1710
root  -52.0395 39.7083 -72.8306 14.9988 75.0739 13.3718
RightUpLeg  -2.12529 -23.8714 -13.295
RightLeg  33.5926 -17.4154 -12.2976
RightFoot  -12.329 -0.0671491 1.90154
RightToes  5.82063e-011 0 -3.6325e-017
Spine  6.45227 0.0490237 -0.769429
Spine1  -0.595103 -0.218688 0.71458
HEad  4.50135 60.1121 -2.67573
LeftShoulder1  0.907373 0.16934 -20.7771
LeftArm  1.9995 -17.2647 -3.90919
LeftForeArm  17.8773 -11.7103 -13.1568
LeftHand  -0.514427 0.325236 11.8398
RightShoulder  5.98005 7.44933 47.8335
RightArm  20.2638 -4.25246 12.2447
RightForeArm  13.3859 8.75865 14.7592
RightHand  0.527798 2.85903 7.20289
LeftUpLeg  -7.94784 10.1197 3.01957
LeftLeg  2.8415 17.9009 -4.41585
LeftFoot  4.3898 0.614239 -4.63856
LeftToes  -6.27584e-011 -2.25241e-010 2.80627e-011
1711
root  -52.6178 39.7117 -72.6112 12.3958 71.3104 10.2257
RightUpLeg  -0.964262 -26.1069 -13.1373
RightLeg  28.2051 -18.9878 -10.9169
RightFoot  -12.0815 -0.0732837 1.32524
RightToes  5.82063e-011 0 -3.6325e-017
Spine  6.14692 0.26321 -0.771471
Spine1  -0.507226 0.0336687 0.880463
HEad  3.06544 61.0669 -3.75067
LeftShoulder1  0.893013 0.133888 -20.0163
LeftArm  -13.6274 -20.2977 -1.71375
LeftForeArm  25.6867 -6.3151 -14.5194
LeftHand  -0.485562 1.09689 13.1099
RightShoulder  6.55104 8.4332 48.0791
RightArm  24.12 -3.41017 12.4974
RightForeArm  8.78277 12.0047 13.224
RightHand  0.509817 2.72814 7.0738
LeftUpLeg  -8.32146 10.6501 3.95137
LeftLeg  1.98155 21.2461 -4.44046
LeftFoot  5.61895 0.697465 -4.90614
LeftToes  -6.27584e-011 -2.25241e-010 2.80627e-011
1712
root  -53.251 39.6888 -72.3254 10.8198 67.2779 8.16885
RightUpLeg  -0.299594 -28.5849 -12.5897
RightLeg  23.2246 -19.4174 -9.08554
RightFoot  -11.062 -0.0774296 1.01706
RightToes  5.82063e-011 0 -3.6325e-017
Spine  6.01301 0.555653 -0.773996
Spine1  -0.472071 0.362285 0.925004
HEad  1.59062 62.1691 -5.26543
LeftShoulder1  0.871541 0.12694 -19.2761
LeftArm  -21.0377 -22.1849 -0.168345
LeftForeArm  28.454 -3.74188 -14.5265
LeftHand  -0.531148 0.898745 13.7292
RightShoulder  7.23224 9.58503 48.4042
RightArm  27.1001 -2.5941 12.869
RightForeArm  5.27468 14.7617 11.4255
RightHand  0.491808 2.7957 6.75524
LeftUpLeg  -8.53796 11.3864 5.0834
LeftLeg  1.18767 24.5597 -4.5652
LeftFoot  6.88505 0.806055 -5.28484
LeftToes  -6.27584e-011 -2.25241e-010 2.80627e-011
1713
root  -53.9349 39.6188 -71.9829 10.1392 63.2717 7.08908
RightUpLeg  0.294196 -30.3685 -11.8489
RightLeg  18.5289 -19.4386 -6.85044
RightFoot  -10.5145 -0.0950633 3.28566
RightToes  5.82063e-011 0 -3.6325e-017
Spine  5.82763 0.723676 -0.726127
Spine1  -0.245969 0.598491 0.584971
HEad  0.899874 63.2035 -6.48613
LeftShoulder1  0.846399 0.148199 -18.6459
LeftArm  -24.2826 -23.4372 0.902613
LeftForeArm  29.3355 -2.05199 -14.5304
LeftHand  -0.497384 0.830972 12.6705
RightShoulder  8.04647 10.9549 48.7456
RightArm  29.7047 -1.52491 13.5183
RightForeArm  2.38046 16.869 9.81809
RightHand  0.473352 2.79656 6.49354
LeftUpLeg  -8.73069 12.1865 6.23152
LeftLeg  0.669098 27.7184 -4.63891
LeftFoot  8.1546 0.924673 -5.66981
LeftToes  -6.27584e-011 -2.25241e-010 2.80627e-011
